<svg width="101" height="100" viewBox="0 0 101 100" fill="none" xmlns="http://www.w3.org/2000/svg">
<path d="M67.1667 53.3334V46.6667H73.8333V53.3334H67.1667Z" fill="#263138"/>
<path fill-rule="evenodd" clip-rule="evenodd" d="M50.5 2.80762L93.8333 28.0854V71.9147L50.5 97.192L7.16667 71.9147V28.0854L50.5 2.80762ZM42.7104 26.6667C30.4439 26.6667 20.5 36.6106 20.5 48.8771V51.1229C20.5 63.3894 30.4439 73.3333 42.7104 73.3333C46.1585 73.3333 49.5591 72.5307 52.6432 70.9887L55.3241 69.648L52.3426 63.6853L49.6617 65.0257C47.5035 66.1049 45.1235 66.6667 42.7104 66.6667C34.1258 66.6667 27.1667 59.7075 27.1667 51.1229V48.8771C27.1667 40.2925 34.1258 33.3333 42.7104 33.3333C45.1235 33.3333 47.5035 33.8951 49.6617 34.9743L52.3426 36.3147L55.3241 30.3519L52.6432 29.0115C49.5591 27.4695 46.1585 26.6667 42.7104 26.6667ZM60.5 33.3333V40H53.8333V46.6667H60.5V53.3333H53.8333V60H60.5V66.6667H67.1667V60H73.8333V66.6667H80.5V60H87.1667V53.3333H80.5V46.6667H87.1667V40H80.5V33.3333H73.8333V40H67.1667V33.3333H60.5Z" fill="#263138"/>
</svg>
