<svg width="101" height="100" viewBox="0 0 101 100" fill="none" xmlns="http://www.w3.org/2000/svg">
<path d="M31.7566 0H42.4987V4.49217H36.2488V8.98438H42.4987V13.4766H31.7566V0Z" fill="#263138"/>
<path d="M44.6471 0H55.3896V3.90625H49.1396V4.6875H55.3896V13.6719H44.6471V9.57033H50.8971V8.78908H44.6471V0Z" fill="#263138"/>
<path d="M57.5379 0H68.28V3.90625H62.03V4.6875H68.28V13.6719H57.5379V9.57033H63.7879V8.78908H57.5379V0Z" fill="#263138"/>
<path fill-rule="evenodd" clip-rule="evenodd" d="M50.4633 100L21.5308 91.9679L13 19.6523H88L79.4754 91.9567L50.4633 100ZM29.864 52.3862L30.6589 61.2554H61.3971L60.3675 72.7579L50.4754 75.4279L50.4667 75.4308L40.589 72.7637L39.9575 65.69H31.0542L32.2968 79.6162L50.4646 84.6596L68.6579 79.6158L70.8754 54.7679L71.0921 52.3862L72.6933 34.4345H28.2669L29.0732 43.3037H62.9733L62.1662 52.3862H29.864Z" fill="#263138"/>
</svg>
