<svg width="101" height="100" viewBox="0 0 101 100" fill="none" xmlns="http://www.w3.org/2000/svg">
<g clip-path="url(#clip0_8_22)">
<path d="M98.6125 45.5437L54.95 1.88748C54.3522 1.28937 53.6424 0.814898 52.8611 0.491185C52.0799 0.167471 51.2425 0.000854492 50.3969 0.000854492C49.5512 0.000854492 48.7139 0.167471 47.9326 0.491185C47.1514 0.814898 46.4416 1.28937 45.8438 1.88748L36.7812 10.95L48.2812 22.45C49.6375 21.9869 51.0967 21.9145 52.4921 22.2409C53.8876 22.5674 55.1632 23.2795 56.1733 24.2962C57.1835 25.3128 57.8874 26.593 58.2049 27.9905C58.5224 29.3881 58.4405 30.8467 57.9688 32.2L69.05 43.2875C70.6895 42.7102 72.4766 42.7085 74.1172 43.2825C75.7578 43.8566 77.154 44.9721 78.0759 46.4456C78.9978 47.9191 79.3905 49.6625 79.1892 51.389C78.988 53.1154 78.2048 54.7218 76.9688 55.9437C75.7174 57.2028 74.0678 57.9883 72.3016 58.1661C70.5354 58.3439 68.7623 57.903 67.2851 56.9187C65.8079 55.9344 64.7182 54.4677 64.2023 52.7693C63.6864 51.0708 63.7761 49.2459 64.4563 47.6062L54.125 37.2687V64.475C55.6954 65.2523 56.9519 66.5444 57.6851 68.1358C58.4183 69.7272 58.584 71.5219 58.1544 73.2206C57.7249 74.9194 56.7261 76.4196 55.3245 77.4712C53.923 78.5229 52.2033 79.0624 50.4522 78.9998C48.7011 78.9373 47.0244 78.2765 45.7014 77.1275C44.3784 75.9786 43.4892 74.411 43.182 72.6859C42.8747 70.9608 43.1679 69.1826 44.0128 67.6475C44.8577 66.1124 46.2032 64.9133 47.825 64.25V36.7937C46.8893 36.4103 46.0388 35.8455 45.3224 35.1318C44.606 34.4181 44.038 33.5697 43.651 32.6355C43.2641 31.7013 43.0659 30.6997 43.0679 29.6885C43.0698 28.6773 43.2719 27.6765 43.6625 26.7437L32.3312 15.4062L2.39375 45.3437C1.79564 45.9416 1.32117 46.6514 0.997456 47.4326C0.673742 48.2138 0.507126 49.0512 0.507126 49.8969C0.507126 50.7425 0.673742 51.5799 0.997456 52.3611C1.32117 53.1424 1.79564 53.8522 2.39375 54.45L46.0563 98.1125C46.6541 98.7106 47.3639 99.1851 48.1451 99.5088C48.9264 99.8325 49.7637 99.9991 50.6094 99.9991C51.455 99.9991 52.2924 99.8325 53.0736 99.5088C53.8549 99.1851 54.5647 98.7106 55.1625 98.1125L98.6188 54.6562C99.8252 53.4481 100.503 51.8105 100.503 50.1031C100.503 48.3957 99.8252 46.7582 98.6188 45.55" fill="#263138"/>
</g>
<defs>
<clipPath id="clip0_8_22">
<rect width="100" height="100" fill="white" transform="translate(0.5)"/>
</clipPath>
</defs>
</svg>
