<svg width="101" height="100" viewBox="0 0 101 100" fill="none" xmlns="http://www.w3.org/2000/svg">
<path d="M29.3501 17.2843H32.9238V21.1984H36.8325V9.50909H32.9238V13.372H29.3501V9.50909H25.4431V21.1984H29.3501V17.2843Z" fill="#263138"/>
<path d="M41.969 21.1984H45.876V13.3879H49.3138V9.50909H38.5312V13.3879H41.969V21.1984Z" fill="#263138"/>
<path d="M54.8489 15.4075L57.5406 19.5615H57.6058L60.2922 15.4075V21.1984H64.1851V9.50909H60.1105L57.6058 13.6225L55.1011 9.50909H51.0283V21.1984H54.8489V15.4075Z" fill="#263138"/>
<path d="M75.5304 17.3372H70.0359V9.50909H66.1289V21.1984H75.5304V17.3372Z" fill="#263138"/>
<path d="M19.8128 26.3278L25.4008 89.0022L50.485 95.9642L75.5886 89.0057L81.1872 26.3278H19.8128ZM69.064 46.8241H50.4991H39.6477L40.3497 54.6963H50.4991H68.3655L66.2577 78.3024L50.4991 82.668L50.4885 82.6716L34.7406 78.3024L33.6417 65.9552H41.3569L41.9284 72.3599L50.4903 74.6741L50.5009 74.6706L59.0716 72.3564L59.9641 62.3869H50.5009H33.3224L31.2463 39.1406H50.4991H69.7502L69.064 46.8241Z" fill="#263138"/>
</svg>
