<svg width="101" height="100" viewBox="0 0 101 100" fill="none" xmlns="http://www.w3.org/2000/svg">
<path fill-rule="evenodd" clip-rule="evenodd" d="M93.8334 28.0854L50.5 2.80762L7.16669 28.0854V71.9147L13.8756 75.828L27.5843 70.2813C31.3614 68.7533 33.8336 65.086 33.8336 61.0114V26.6667H40.5003V61.0114C40.5003 67.8027 36.38 73.914 30.0848 76.4613L21.1551 80.0747L50.5 97.192L93.8334 71.9147V28.0854ZM47.1667 40C47.1667 32.6362 53.1362 26.6667 60.5 26.6667H68.278C75.028 26.6667 80.5 32.1387 80.5 38.8889V40H73.8334V38.8889C73.8334 35.8207 71.346 33.3333 68.278 33.3333H60.5C56.8182 33.3333 53.8334 36.3181 53.8334 40C53.8334 43.6819 56.8182 46.6667 60.5 46.6667H67.1667C74.5307 46.6667 80.5 52.6362 80.5 60C80.5 67.364 74.5307 73.3333 67.1667 73.3333H60.5C53.1362 73.3333 47.1667 67.364 47.1667 60H53.8334C53.8334 63.6819 56.8182 66.6667 60.5 66.6667H67.1667C70.8487 66.6667 73.8334 63.6819 73.8334 60C73.8334 56.3181 70.8487 53.3333 67.1667 53.3333H60.5C53.1362 53.3333 47.1667 47.3638 47.1667 40Z" fill="#263138"/>
</svg>
