<svg width="101" height="100" viewBox="0 0 101 100" fill="none" xmlns="http://www.w3.org/2000/svg">
<path d="M19.25 6.25H81.75C88.625 6.25 94.25 11.875 94.25 18.75V81.25C94.25 88.125 88.625 93.75 81.75 93.75H19.25C12.375 93.75 6.75 88.125 6.75 81.25V18.75C6.75 11.875 12.375 6.25 19.25 6.25Z" fill="#263138"/>
<path d="M86.4375 50C86.4375 45 80.5 40.9375 71.75 38.125C73.9375 29.0625 73 21.875 68.9375 19.6875C67.6875 19.0625 66.75 18.75 65.5 18.75C61.4375 18.75 56.4375 21.5625 51.4375 26.5625C46.125 21.5625 41.125 18.75 37.0625 18.75C35.8125 18.75 34.5625 19.0625 33.625 19.6875C29.5625 21.875 28.625 29.0625 30.8125 38.125C22.0625 40.9375 16.125 45 16.125 50C16.125 55 22.0625 59.0625 30.8125 61.875C28.625 70.9375 29.25 78.125 33.625 80.625C34.5625 81.25 35.8125 81.5625 37.0625 81.5625C41.125 81.5625 46.125 78.75 51.125 73.75C56.125 78.75 61.4375 81.5625 65.1875 81.5625C66.4375 81.5625 67.6875 81.25 68.625 80.625C72.6875 78.125 73.625 70.9375 71.4375 61.875C80.5 59.0625 86.4375 54.6875 86.4375 50ZM65.5 22.1875C66.125 22.1875 66.75 22.1875 67.0625 22.5C68.9375 23.75 69.875 27.8125 69.25 33.125C68.9375 34.375 68.9375 35.9375 68.625 37.1875C65.8125 36.5625 62.6875 35.9375 59.5625 35.625C57.6875 33.125 55.8125 30.625 53.9375 28.75C58.3125 24.375 62.6875 22.1875 65.5 22.1875ZM60.8125 55.625C59.875 57.5 58.625 59.0625 57.6875 60.9375C55.5 60.9375 53.625 61.25 51.4375 61.25C49.25 61.25 47.0625 61.25 45.1875 60.9375C43.9375 59.375 43 57.5 42.0625 55.625C41.125 53.75 40.1875 51.875 39.25 50C40.1875 48.125 41.125 46.25 42.0625 44.375C43 42.5 44.25 40.625 45.5 39.0625C47.375 39.0625 49.5625 38.75 51.75 38.75C53.9375 38.75 55.8125 38.75 58 39.0625C59.25 40.625 60.1875 42.5 61.4375 44.375C62.375 46.25 63.3125 48.125 64.25 50C63 51.875 61.75 53.75 60.8125 55.625ZM65.5 54.0625C66.125 55.9375 66.75 57.5 67.375 59.375C65.5 59.6875 63.625 60 61.75 60.3125C62.375 59.375 63 58.4375 63.625 57.1875C64.25 56.25 64.875 55 65.5 54.0625ZM51.125 68.75C49.875 67.5 48.625 65.9375 47.375 64.375C48.625 64.375 49.875 64.375 51.125 64.375C52.375 64.375 53.625 64.375 54.875 64.375C53.625 65.9375 52.375 67.5 51.125 68.75ZM40.5 60.3125C38.625 60 36.75 59.6875 34.875 59.375C35.5 57.5 36.125 55.9375 36.75 54.0625C37.375 55 38 56.25 38.625 57.1875C39.25 58.4375 39.875 59.375 40.5 60.3125ZM37.0625 45.9375C36.4375 44.0625 35.8125 42.1875 35.1875 40.625C37.0625 40.3125 38.9375 40 40.8125 39.6875C40.1875 40.625 39.5625 41.875 38.9375 42.8125C38 43.75 37.375 45 37.0625 45.9375ZM51.125 31.25C52.375 32.5 53.625 34.0625 54.875 35.625C53.625 35.625 52.375 35.625 51.125 35.625C49.875 35.625 48.625 35.625 47.375 35.625C48.625 34.0625 49.875 32.5 51.125 31.25ZM63.625 42.8125C63 41.5625 62.375 40.625 61.75 39.6875C63.625 40 65.5 40.3125 67.375 40.625C66.75 42.5 66.125 44.375 65.5 45.9375C64.875 45 64.25 43.75 63.625 42.8125ZM33.3125 33.125C32.6875 27.8125 33.3125 23.75 35.5 22.5C35.8125 22.1875 36.4375 22.1875 37.0625 22.1875C39.875 22.1875 44.25 24.375 48.9375 29.0625C47.0625 31.25 45.1875 33.4375 43.3125 35.9375C40.1875 36.25 37.0625 36.875 34.25 37.5C33.625 35.9375 33.3125 34.375 33.3125 33.125ZM27.6875 56.875C22.6875 54.6875 19.5625 52.1875 19.5625 49.6875C19.5625 47.5 22.6875 44.6875 27.6875 42.5C28.9375 41.875 30.1875 41.5625 31.75 41.25C32.6875 44.0625 33.625 46.875 34.875 49.6875C33.625 52.5 32.375 55.3125 31.75 58.125C30.1875 58.125 28.9375 57.5 27.6875 56.875ZM35.5 77.5C33.625 76.25 32.6875 72.1875 33.3125 66.875C33.625 65.625 33.625 64.0625 34.25 62.5C37.0625 63.125 39.875 63.75 43 64.0625C44.875 66.5625 46.75 69.0625 48.9375 71.25C44.25 75.625 39.875 78.125 37.0625 78.125C36.4375 77.8125 35.8125 77.8125 35.5 77.5ZM69.25 66.875C69.875 72.1875 69.25 76.25 67.0625 77.5C66.75 77.8125 66.125 77.8125 65.5 77.8125C62.6875 77.8125 58.3125 75.625 53.625 70.9375C55.5 68.75 57.6875 66.5625 59.5625 63.75C62.6875 63.4375 65.8125 63.125 68.3125 62.1875C68.625 64.0625 68.9375 65.625 69.25 66.875ZM74.875 56.875C73.625 57.5 72.375 57.8125 70.8125 58.4375C69.875 55.625 68.9375 52.8125 67.6875 50C68.9375 47.1875 70.1875 44.0625 70.8125 41.5625C72.375 41.875 73.625 42.5 74.875 42.8125C79.875 45 83 47.5 83 50C83 52.1875 79.875 55 74.875 56.875Z" fill="white"/>
<path d="M51.4375 56.5625C55.1875 56.5625 58 53.75 58 50C58 46.25 55.1875 43.4375 51.4375 43.4375C47.6875 43.4375 44.875 46.25 44.875 50C44.875 53.75 47.6875 56.5625 51.4375 56.5625Z" fill="white"/>
</svg>
