<svg width="101" height="100" viewBox="0 0 101 100" fill="none" xmlns="http://www.w3.org/2000/svg">
<g clip-path="url(#clip0_8_38)">
<path d="M50.5004 16.6667C43.6606 16.6667 37.7802 18.5128 33.1644 22.4692C28.5818 26.3971 25.5839 32.1153 23.9209 39.2426C23.5579 40.798 24.3495 42.3924 25.8079 43.0436C27.2664 43.6949 28.9819 43.22 29.8978 41.9115C32.0087 38.896 34.1163 37.0841 36.1413 36.1542C38.1025 35.2537 40.2165 35.0712 42.6379 35.7198C45.0815 36.3744 46.9731 38.2913 49.9429 41.5211L50.0388 41.6255C52.2774 44.0604 55.0082 47.0307 58.7433 49.3352C62.619 51.7266 67.442 53.3333 73.834 53.3333C80.6733 53.3333 86.554 51.4872 91.17 47.5308C95.752 43.6029 98.75 37.8847 100.413 30.7574C100.776 29.202 99.9847 27.6076 98.526 26.9564C97.068 26.3051 95.352 26.7799 94.436 28.0884C92.3253 31.104 90.218 32.9158 88.1927 33.8458C86.2313 34.7463 84.1173 34.9288 81.696 34.2802C79.2527 33.6256 77.3607 31.7087 74.3913 28.4788L74.2953 28.3744C72.0567 25.9396 69.326 22.9692 65.5908 20.6648C61.7151 18.2734 56.8922 16.6667 50.5004 16.6667Z" fill="#263138"/>
<path d="M27.1671 46.6666C20.3273 46.6666 14.4469 48.5127 9.83107 52.4691C5.24847 56.397 2.25061 62.1152 0.587577 69.2427C0.224629 70.798 1.01611 72.392 2.47457 73.0434C3.93304 73.6947 5.64851 73.22 6.56449 71.9114C8.67533 68.896 10.7829 67.084 12.808 66.1542C14.7692 65.2536 16.8831 65.0712 19.3046 65.7198C21.7482 66.3743 23.6398 68.2914 26.6095 71.5214L26.7055 71.6254C28.944 74.06 31.6749 77.0307 35.4099 79.3354C39.2857 81.7267 44.1085 83.3334 50.5004 83.3334C57.3401 83.3334 63.2205 81.4874 67.8367 77.5307C72.4187 73.6027 75.4167 67.8847 77.08 60.7574C77.4427 59.2018 76.6513 57.6076 75.1927 56.9562C73.7347 56.305 72.0187 56.7798 71.1027 58.0884C68.992 61.1039 66.8845 62.9158 64.8594 63.8456C62.8983 64.7462 60.7843 64.9287 58.3628 64.2801C55.9193 63.6256 54.0277 61.7086 51.0579 58.4788L50.9619 58.3744C48.7234 55.9395 45.9925 52.9692 42.2575 50.6646C38.3818 48.2734 33.5589 46.6666 27.1671 46.6666Z" fill="#263138"/>
</g>
<defs>
<clipPath id="clip0_8_38">
<rect width="100" height="100" fill="white" transform="translate(0.5)"/>
</clipPath>
</defs>
</svg>
