<svg width="30" height="30" viewBox="0 0 30 30" fill="none" xmlns="http://www.w3.org/2000/svg">
<g clip-path="url(#clip0_8_79)">
<path d="M21.25 25H3.125C1.4025 25 0 23.5975 0 21.875V3.125C0 1.4025 1.4025 0 3.125 0H13.125C13.3925 0 13.63 0.17 13.7162 0.4225L21.8412 24.1725C21.9062 24.3625 21.875 24.5738 21.7587 24.7375C21.6412 24.9025 21.4525 25 21.25 25ZM3.125 1.25C2.09125 1.25 1.25 2.09125 1.25 3.125V21.875C1.25 22.9088 2.09125 23.75 3.125 23.75H20.375L12.6787 1.25H3.125Z" fill="black"/>
<path d="M26.875 30H16.875C16.615 30 16.3812 29.8388 16.29 29.595L14.415 24.595C14.2937 24.2713 14.4575 23.9112 14.78 23.79C15.1038 23.67 15.4638 23.8325 15.585 24.155L17.3088 28.75H26.875C27.9087 28.75 28.75 27.9088 28.75 26.875V8.125C28.75 7.09125 27.9087 6.25 26.875 6.25H15C14.655 6.25 14.375 5.97 14.375 5.625C14.375 5.28 14.655 5 15 5H26.875C28.5975 5 30 6.4025 30 8.125V26.875C30 28.5975 28.5975 30 26.875 30Z" fill="black"/>
<path d="M16.875 30C16.7288 30 16.5825 29.9488 16.4638 29.845C16.2038 29.6175 16.1775 29.2225 16.405 28.9625L20.78 23.9625C21.0075 23.7013 21.4025 23.6763 21.6625 23.9038C21.9225 24.1313 21.9488 24.5263 21.7213 24.7863L17.3463 29.7863C17.2213 29.9275 17.0488 30 16.875 30Z" fill="black"/>
<path d="M11.875 17.5001C11.6175 17.5001 11.3775 17.3414 11.2863 17.0851L8.75001 9.98387L6.21376 17.0851C6.09751 17.4101 5.73876 17.5801 5.41501 17.4639C5.09001 17.3476 4.92001 16.9901 5.03626 16.6651L8.16126 7.91512C8.33876 7.41762 9.16126 7.41762 9.33751 7.91512L12.4625 16.6651C12.5788 16.9901 12.41 17.3476 12.0838 17.4639C12.0163 17.4889 11.945 17.5001 11.875 17.5001Z" fill="black"/>
<path d="M10 13.75H7.5C7.155 13.75 6.875 13.47 6.875 13.125C6.875 12.78 7.155 12.5 7.5 12.5H10C10.345 12.5 10.625 12.78 10.625 13.125C10.625 13.47 10.345 13.75 10 13.75Z" fill="black"/>
<path d="M26.875 13.75H18.125C17.78 13.75 17.5 13.47 17.5 13.125C17.5 12.78 17.78 12.5 18.125 12.5H26.875C27.22 12.5 27.5 12.78 27.5 13.125C27.5 13.47 27.22 13.75 26.875 13.75Z" fill="black"/>
<path d="M21.875 13.75C21.53 13.75 21.25 13.47 21.25 13.125V11.875C21.25 11.53 21.53 11.25 21.875 11.25C22.22 11.25 22.5 11.53 22.5 11.875V13.125C22.5 13.47 22.22 13.75 21.875 13.75Z" fill="black"/>
<path d="M20 21.25C19.8038 21.25 19.6113 21.1587 19.49 20.9875C19.29 20.7062 19.3563 20.3162 19.6375 20.1162C22.3738 18.1725 24.375 14.2075 24.375 13.1262C24.375 12.7812 24.655 12.5012 25 12.5012C25.345 12.5012 25.625 12.7812 25.625 13.1262C25.625 14.7737 23.2163 19.1075 20.3625 21.1362C20.2525 21.2125 20.1263 21.25 20 21.25Z" fill="black"/>
<path d="M25 22.4999C24.8487 22.4999 24.6975 22.4462 24.5787 22.3362C24.125 21.9212 20.1312 18.2324 19.4212 16.4849C19.2912 16.1649 19.4462 15.8012 19.765 15.6712C20.0812 15.5424 20.4487 15.6949 20.5787 16.0149C21.09 17.2737 24.2487 20.3387 25.4225 21.4137C25.6775 21.6474 25.6937 22.0412 25.4612 22.2974C25.3375 22.4312 25.1687 22.4999 25 22.4999Z" fill="black"/>
</g>
<defs>
<clipPath id="clip0_8_79">
<rect width="30" height="30" fill="white"/>
</clipPath>
</defs>
</svg>
