<svg width="101" height="100" viewBox="0 0 101 100" fill="none" xmlns="http://www.w3.org/2000/svg">
<g clip-path="url(#clip0_8_24)">
<path d="M90.7333 0H10.2667C4.875 0 0.5 4.375 0.5 9.76667V90.2333C0.5 95.625 4.875 100 10.2667 100H90.7333C96.125 100 100.5 95.625 100.5 90.2333V9.76667C100.5 4.375 96.125 0 90.7333 0ZM58.5083 55.4833H45.9667V91.2083H36.0292V55.4833H23.5458V47.4583H58.5083V55.4833ZM90.9083 84.875C88.9625 88.3542 85.3875 90.3125 81.5833 91.125C77.1667 92.0667 72.4708 92.0167 68.0417 91.1875C65.8708 90.7792 63.9917 90.1708 62.4042 89.3542V79.575C64.1792 81.0625 66.1042 82.1792 68.1833 82.9208C70.2625 83.6667 72.3625 84.0375 74.4792 84.0375C76.3542 84.0375 78.4417 83.8042 80.0583 82.7708C81.1667 82.0625 81.9083 80.9458 81.9083 79.6083C81.9083 77.7875 80.5917 76.4125 79.1708 75.4542C77.0917 74.0542 74.7042 73.1417 72.4 72.1833C68.975 70.7583 66.425 69.0167 64.7417 66.9583C61.8167 63.3792 61.3375 57.6625 63.5958 53.6208C65.525 50.1708 69.0792 48.1375 72.8292 47.2333C76.9167 46.25 81.3542 46.25 85.5 46.8958C87.2625 47.1708 88.8875 47.5917 90.375 48.1625V57.3C89.6417 56.7917 88.8417 56.3417 87.975 55.9583C86.2667 55.1958 84.4208 54.6792 82.5667 54.4292C80.7125 54.1792 78.7583 54.1375 76.9292 54.5667C75.4875 54.9 73.9708 55.5708 73.1375 56.8583C72.7917 57.4 72.6167 58.0042 72.6167 58.675C72.6167 59.4083 72.8083 60.0667 73.1958 60.6458C74.175 62.1167 75.9 63.0625 77.4458 63.825C80.1625 65.1583 83.0125 66.1583 85.6208 67.7042C88.1542 69.2 90.4042 71.2833 91.5042 74.0583C92.0333 75.3917 92.3 76.9458 92.3 78.7167C92.2958 81.1625 91.8333 83.2167 90.9083 84.875Z" fill="#263138"/>
</g>
<defs>
<clipPath id="clip0_8_24">
<rect width="100" height="100" fill="white" transform="translate(0.5)"/>
</clipPath>
</defs>
</svg>
